%TF.GenerationSoftware,KiCad,Pcbnew,5.1.8*%
%TF.CreationDate,2021-01-16T11:32:51+01:00*%
%TF.ProjectId,macropad,6d616372-6f70-4616-942e-6b696361645f,rev?*%
%TF.SameCoordinates,Original*%
%TF.FileFunction,Copper,L2,Bot*%
%TF.FilePolarity,Positive*%
%FSLAX46Y46*%
G04 Gerber Fmt 4.6, Leading zero omitted, Abs format (unit mm)*
G04 Created by KiCad (PCBNEW 5.1.8) date 2021-01-16 11:32:51*
%MOMM*%
%LPD*%
G01*
G04 APERTURE LIST*
%TA.AperFunction,ComponentPad*%
%ADD10C,2.200000*%
%TD*%
%TA.AperFunction,ComponentPad*%
%ADD11C,6.000000*%
%TD*%
%TA.AperFunction,ComponentPad*%
%ADD12C,1.700000*%
%TD*%
%TA.AperFunction,ComponentPad*%
%ADD13R,1.700000X1.700000*%
%TD*%
%TA.AperFunction,SMDPad,CuDef*%
%ADD14R,0.900000X1.200000*%
%TD*%
%TA.AperFunction,Conductor*%
%ADD15C,0.250000*%
%TD*%
G04 APERTURE END LIST*
D10*
%TO.P,SW1,1*%
%TO.N,/Row1*%
X93980000Y-95250000D03*
%TO.P,SW1,2*%
%TO.N,Net-(D1-Pad1)*%
X87630000Y-97790000D03*
%TD*%
D11*
%TO.P,REF\u002A\u002A,1*%
%TO.N,N/C*%
X173000000Y-93000000D03*
%TD*%
%TO.P,REF\u002A\u002A,1*%
%TO.N,N/C*%
X173000000Y-146000000D03*
%TD*%
%TO.P,REF\u002A\u002A,1*%
%TO.N,N/C*%
X74000000Y-146000000D03*
%TD*%
%TO.P,REF\u002A\u002A,1*%
%TO.N,N/C*%
X74000000Y-93000000D03*
%TD*%
D10*
%TO.P,SW2,2*%
%TO.N,Net-(D2-Pad1)*%
X87630000Y-116840000D03*
%TO.P,SW2,1*%
%TO.N,/Row2*%
X93980000Y-114300000D03*
%TD*%
%TO.P,SW3,2*%
%TO.N,Net-(D3-Pad1)*%
X87630000Y-135890000D03*
%TO.P,SW3,1*%
%TO.N,/Row3*%
X93980000Y-133350000D03*
%TD*%
%TO.P,SW4,2*%
%TO.N,Net-(D4-Pad1)*%
X106680000Y-97790000D03*
%TO.P,SW4,1*%
%TO.N,/Row1*%
X113030000Y-95250000D03*
%TD*%
%TO.P,SW5,1*%
%TO.N,/Row2*%
X113030000Y-114300000D03*
%TO.P,SW5,2*%
%TO.N,Net-(D5-Pad1)*%
X106680000Y-116840000D03*
%TD*%
%TO.P,SW6,1*%
%TO.N,/Row3*%
X113030000Y-133350000D03*
%TO.P,SW6,2*%
%TO.N,Net-(D6-Pad1)*%
X106680000Y-135890000D03*
%TD*%
%TO.P,SW7,1*%
%TO.N,/Row1*%
X132080000Y-95250000D03*
%TO.P,SW7,2*%
%TO.N,Net-(D7-Pad1)*%
X125730000Y-97790000D03*
%TD*%
%TO.P,SW8,1*%
%TO.N,/Row2*%
X132080000Y-114300000D03*
%TO.P,SW8,2*%
%TO.N,Net-(D8-Pad1)*%
X125730000Y-116840000D03*
%TD*%
%TO.P,SW9,2*%
%TO.N,Net-(D9-Pad1)*%
X125730000Y-135890000D03*
%TO.P,SW9,1*%
%TO.N,/Row3*%
X132080000Y-133350000D03*
%TD*%
D12*
%TO.P,U1,40*%
%TO.N,Net-(U1-Pad40)*%
X165100000Y-93980000D03*
D13*
%TO.P,U1,1*%
%TO.N,/Col1*%
X149860000Y-93980000D03*
D12*
%TO.P,U1,39*%
%TO.N,Net-(U1-Pad39)*%
X165100000Y-96520000D03*
%TO.P,U1,2*%
%TO.N,/Col2*%
X149860000Y-96520000D03*
%TO.P,U1,38*%
%TO.N,Net-(U1-Pad38)*%
X165100000Y-99060000D03*
%TO.P,U1,3*%
%TO.N,/Col3*%
X149860000Y-99060000D03*
%TO.P,U1,37*%
%TO.N,Net-(U1-Pad37)*%
X165100000Y-101600000D03*
%TO.P,U1,4*%
%TO.N,Net-(U1-Pad4)*%
X149860000Y-101600000D03*
%TO.P,U1,36*%
%TO.N,Net-(U1-Pad36)*%
X165100000Y-104140000D03*
%TO.P,U1,5*%
%TO.N,Net-(U1-Pad5)*%
X149860000Y-104140000D03*
%TO.P,U1,35*%
%TO.N,Net-(U1-Pad35)*%
X165100000Y-106680000D03*
%TO.P,U1,6*%
%TO.N,Net-(U1-Pad6)*%
X149860000Y-106680000D03*
%TO.P,U1,34*%
%TO.N,Net-(U1-Pad34)*%
X165100000Y-109220000D03*
%TO.P,U1,7*%
%TO.N,Net-(U1-Pad7)*%
X149860000Y-109220000D03*
%TO.P,U1,33*%
%TO.N,Net-(U1-Pad33)*%
X165100000Y-111760000D03*
%TO.P,U1,8*%
%TO.N,Net-(U1-Pad8)*%
X149860000Y-111760000D03*
%TO.P,U1,32*%
%TO.N,Net-(U1-Pad32)*%
X165100000Y-114300000D03*
%TO.P,U1,9*%
%TO.N,Net-(U1-Pad9)*%
X149860000Y-114300000D03*
%TO.P,U1,31*%
%TO.N,Net-(U1-Pad31)*%
X165100000Y-116840000D03*
%TO.P,U1,10*%
%TO.N,Net-(U1-Pad10)*%
X149860000Y-116840000D03*
%TO.P,U1,30*%
%TO.N,Net-(U1-Pad30)*%
X165100000Y-119380000D03*
%TO.P,U1,11*%
%TO.N,/Row1*%
X149860000Y-119380000D03*
%TO.P,U1,29*%
%TO.N,Net-(U1-Pad29)*%
X165100000Y-121920000D03*
%TO.P,U1,12*%
%TO.N,/Row2*%
X149860000Y-121920000D03*
%TO.P,U1,28*%
%TO.N,Net-(U1-Pad28)*%
X165100000Y-124460000D03*
%TO.P,U1,13*%
%TO.N,/Row3*%
X149860000Y-124460000D03*
%TO.P,U1,27*%
%TO.N,Net-(U1-Pad27)*%
X165100000Y-127000000D03*
%TO.P,U1,14*%
%TO.N,Net-(U1-Pad14)*%
X149860000Y-127000000D03*
%TO.P,U1,26*%
%TO.N,Net-(U1-Pad26)*%
X165100000Y-129540000D03*
%TO.P,U1,15*%
%TO.N,Net-(U1-Pad15)*%
X149860000Y-129540000D03*
%TO.P,U1,25*%
%TO.N,Net-(U1-Pad25)*%
X165100000Y-132080000D03*
%TO.P,U1,16*%
%TO.N,Net-(U1-Pad16)*%
X149860000Y-132080000D03*
%TO.P,U1,24*%
%TO.N,Net-(U1-Pad24)*%
X165100000Y-134620000D03*
%TO.P,U1,17*%
%TO.N,Net-(U1-Pad17)*%
X149860000Y-134620000D03*
%TO.P,U1,23*%
%TO.N,Net-(U1-Pad23)*%
X165100000Y-137160000D03*
%TO.P,U1,18*%
%TO.N,Net-(U1-Pad18)*%
X149860000Y-137160000D03*
%TO.P,U1,22*%
%TO.N,Net-(U1-Pad22)*%
X165100000Y-139700000D03*
%TO.P,U1,19*%
%TO.N,Net-(U1-Pad19)*%
X149860000Y-139700000D03*
%TO.P,U1,21*%
%TO.N,Net-(U1-Pad21)*%
X165100000Y-142240000D03*
%TO.P,U1,20*%
%TO.N,Net-(U1-Pad20)*%
X149860000Y-142240000D03*
%TD*%
D14*
%TO.P,D1,1*%
%TO.N,Net-(D1-Pad1)*%
X89790000Y-106680000D03*
%TO.P,D1,2*%
%TO.N,/Col1*%
X93090000Y-106680000D03*
%TD*%
%TO.P,D2,1*%
%TO.N,Net-(D2-Pad1)*%
X90272500Y-124460000D03*
%TO.P,D2,2*%
%TO.N,/Col1*%
X93572500Y-124460000D03*
%TD*%
%TO.P,D3,1*%
%TO.N,Net-(D3-Pad1)*%
X90272500Y-143510000D03*
%TO.P,D3,2*%
%TO.N,/Col1*%
X93572500Y-143510000D03*
%TD*%
%TO.P,D4,1*%
%TO.N,Net-(D4-Pad1)*%
X108840000Y-106680000D03*
%TO.P,D4,2*%
%TO.N,/Col2*%
X112140000Y-106680000D03*
%TD*%
%TO.P,D5,2*%
%TO.N,/Col2*%
X112622500Y-124460000D03*
%TO.P,D5,1*%
%TO.N,Net-(D5-Pad1)*%
X109322500Y-124460000D03*
%TD*%
%TO.P,D6,1*%
%TO.N,Net-(D6-Pad1)*%
X109322500Y-143510000D03*
%TO.P,D6,2*%
%TO.N,/Col2*%
X112622500Y-143510000D03*
%TD*%
%TO.P,D7,1*%
%TO.N,Net-(D7-Pad1)*%
X128372500Y-106680000D03*
%TO.P,D7,2*%
%TO.N,/Col3*%
X131672500Y-106680000D03*
%TD*%
%TO.P,D8,2*%
%TO.N,/Col3*%
X130675001Y-125730000D03*
%TO.P,D8,1*%
%TO.N,Net-(D8-Pad1)*%
X127375001Y-125730000D03*
%TD*%
%TO.P,D9,1*%
%TO.N,Net-(D9-Pad1)*%
X128372500Y-144780000D03*
%TO.P,D9,2*%
%TO.N,/Col3*%
X131672500Y-144780000D03*
%TD*%
D15*
%TO.N,/Col1*%
X93765001Y-143317499D02*
X93765001Y-136765001D01*
X93572500Y-143510000D02*
X93765001Y-143317499D01*
X92554999Y-125477501D02*
X93572500Y-124460000D01*
X92554999Y-135554999D02*
X92554999Y-125477501D01*
X93765001Y-136765001D02*
X92554999Y-135554999D01*
X92554999Y-107215001D02*
X93090000Y-106680000D01*
X92554999Y-114984001D02*
X92554999Y-107215001D01*
X93765001Y-116194003D02*
X92554999Y-114984001D01*
X93765001Y-120496001D02*
X93765001Y-116194003D01*
X93572500Y-120688502D02*
X93765001Y-120496001D01*
X93572500Y-124460000D02*
X93572500Y-120688502D01*
X148880000Y-93000000D02*
X149860000Y-93980000D01*
X106770000Y-93000000D02*
X148880000Y-93000000D01*
X93090000Y-106680000D02*
X106770000Y-93000000D01*
%TO.N,Net-(D1-Pad1)*%
X87630000Y-104520000D02*
X89790000Y-106680000D01*
X87630000Y-97790000D02*
X87630000Y-104520000D01*
%TO.N,Net-(D2-Pad1)*%
X87630000Y-121817500D02*
X90272500Y-124460000D01*
X87630000Y-116840000D02*
X87630000Y-121817500D01*
%TO.N,Net-(D3-Pad1)*%
X87630000Y-140867500D02*
X90272500Y-143510000D01*
X87630000Y-135890000D02*
X87630000Y-140867500D01*
%TO.N,/Col2*%
X111604999Y-125477501D02*
X112622500Y-124460000D01*
X112815001Y-135244003D02*
X111604999Y-134034001D01*
X111604999Y-134034001D02*
X111604999Y-125477501D01*
X112815001Y-139546001D02*
X112815001Y-135244003D01*
X112622500Y-139738502D02*
X112815001Y-139546001D01*
X112622500Y-143510000D02*
X112622500Y-139738502D01*
X111604999Y-107215001D02*
X112140000Y-106680000D01*
X111604999Y-114984001D02*
X111604999Y-107215001D01*
X112815001Y-116194003D02*
X111604999Y-114984001D01*
X112815001Y-124267499D02*
X112815001Y-116194003D01*
X112622500Y-124460000D02*
X112815001Y-124267499D01*
X129326003Y-96675001D02*
X145864999Y-96675001D01*
X129016001Y-96364999D02*
X129326003Y-96675001D01*
X122455001Y-96364999D02*
X129016001Y-96364999D01*
X112140000Y-106680000D02*
X122455001Y-96364999D01*
X146020000Y-96520000D02*
X145864999Y-96675001D01*
X149860000Y-96520000D02*
X146020000Y-96520000D01*
%TO.N,Net-(D4-Pad1)*%
X106680000Y-104520000D02*
X108840000Y-106680000D01*
X106680000Y-97790000D02*
X106680000Y-104520000D01*
%TO.N,Net-(D5-Pad1)*%
X106680000Y-121817500D02*
X109322500Y-124460000D01*
X106680000Y-116840000D02*
X106680000Y-121817500D01*
%TO.N,Net-(D6-Pad1)*%
X106680000Y-140867500D02*
X109322500Y-143510000D01*
X106680000Y-135890000D02*
X106680000Y-140867500D01*
%TO.N,/Col3*%
X131865001Y-144587499D02*
X131672500Y-144780000D01*
X131865001Y-137313999D02*
X131865001Y-144587499D01*
X130654999Y-136103997D02*
X131865001Y-137313999D01*
X130654999Y-125750002D02*
X130654999Y-136103997D01*
X130675001Y-125730000D02*
X130654999Y-125750002D01*
X130654999Y-107697501D02*
X131672500Y-106680000D01*
X130654999Y-114984001D02*
X130654999Y-107697501D01*
X131865001Y-124540000D02*
X131865001Y-116194003D01*
X131865001Y-116194003D02*
X130654999Y-114984001D01*
X130675001Y-125730000D02*
X131865001Y-124540000D01*
X142240000Y-106680000D02*
X149860000Y-99060000D01*
X131672500Y-106680000D02*
X142240000Y-106680000D01*
%TO.N,Net-(D7-Pad1)*%
X125730000Y-104037500D02*
X128372500Y-106680000D01*
X125730000Y-97790000D02*
X125730000Y-104037500D01*
%TO.N,Net-(D8-Pad1)*%
X125730000Y-124084999D02*
X127375001Y-125730000D01*
X125730000Y-116840000D02*
X125730000Y-124084999D01*
%TO.N,Net-(D9-Pad1)*%
X125730000Y-142137500D02*
X128372500Y-144780000D01*
X125730000Y-135890000D02*
X125730000Y-142137500D01*
%TD*%
M02*
