M48
; DRILL file {KiCad 5.1.8} date Sat Jan 16 11:33:35 2021
; FORMAT={-:-/ absolute / inch / decimal}
; #@! TF.CreationDate,2021-01-16T11:33:35+01:00
; #@! TF.GenerationSoftware,Kicad,Pcbnew,5.1.8
; #@! TF.FileFunction,NonPlated,1,2,NPTH
FMAT,2
INCH
T1C0.0669
T2C0.1575
%
G90
G05
T1
X4.15Y-3.95
X4.9Y-3.95
X5.3Y-3.95
X4.9Y-5.45
X5.3Y-5.45
X4.9Y-4.7
X5.3Y-4.7
X3.4Y-4.7
X3.8Y-4.7
X4.15Y-4.7
X4.55Y-4.7
X3.4Y-3.95
X3.8Y-3.95
X3.4Y-5.45
X3.8Y-5.45
X4.15Y-5.45
X4.55Y-5.45
X4.55Y-3.95
T2
X4.35Y-3.95
X4.35Y-4.7
X3.6Y-5.45
X4.35Y-5.45
X5.1Y-3.95
X5.1Y-5.45
X5.1Y-4.7
X3.6Y-4.7
X3.6Y-3.95
T0
M30
