%TF.GenerationSoftware,KiCad,Pcbnew,5.1.8*%
%TF.CreationDate,2021-01-16T11:32:51+01:00*%
%TF.ProjectId,macropad,6d616372-6f70-4616-942e-6b696361645f,rev?*%
%TF.SameCoordinates,Original*%
%TF.FileFunction,Legend,Bot*%
%TF.FilePolarity,Positive*%
%FSLAX46Y46*%
G04 Gerber Fmt 4.6, Leading zero omitted, Abs format (unit mm)*
G04 Created by KiCad (PCBNEW 5.1.8) date 2021-01-16 11:32:51*
%MOMM*%
%LPD*%
G01*
G04 APERTURE LIST*
%ADD10C,0.120000*%
%ADD11C,0.150000*%
G04 APERTURE END LIST*
D10*
%TO.C,D1*%
X89190000Y-107680000D02*
X89190000Y-105680000D01*
X89190000Y-105680000D02*
X93090000Y-105680000D01*
X89190000Y-107680000D02*
X93090000Y-107680000D01*
%TO.C,D2*%
X89672500Y-125460000D02*
X89672500Y-123460000D01*
X89672500Y-123460000D02*
X93572500Y-123460000D01*
X89672500Y-125460000D02*
X93572500Y-125460000D01*
%TO.C,D3*%
X89672500Y-144510000D02*
X89672500Y-142510000D01*
X89672500Y-142510000D02*
X93572500Y-142510000D01*
X89672500Y-144510000D02*
X93572500Y-144510000D01*
%TO.C,D4*%
X108240000Y-107680000D02*
X108240000Y-105680000D01*
X108240000Y-105680000D02*
X112140000Y-105680000D01*
X108240000Y-107680000D02*
X112140000Y-107680000D01*
%TO.C,D5*%
X108722500Y-125460000D02*
X112622500Y-125460000D01*
X108722500Y-123460000D02*
X112622500Y-123460000D01*
X108722500Y-125460000D02*
X108722500Y-123460000D01*
%TO.C,D6*%
X108722500Y-144510000D02*
X108722500Y-142510000D01*
X108722500Y-142510000D02*
X112622500Y-142510000D01*
X108722500Y-144510000D02*
X112622500Y-144510000D01*
%TO.C,D7*%
X127772500Y-107680000D02*
X127772500Y-105680000D01*
X127772500Y-105680000D02*
X131672500Y-105680000D01*
X127772500Y-107680000D02*
X131672500Y-107680000D01*
%TO.C,D8*%
X126775001Y-126730000D02*
X130675001Y-126730000D01*
X126775001Y-124730000D02*
X130675001Y-124730000D01*
X126775001Y-126730000D02*
X126775001Y-124730000D01*
%TO.C,D9*%
X127772500Y-145780000D02*
X127772500Y-143780000D01*
X127772500Y-143780000D02*
X131672500Y-143780000D01*
X127772500Y-145780000D02*
X131672500Y-145780000D01*
%TO.C,D1*%
D11*
X92178095Y-109132380D02*
X92178095Y-108132380D01*
X91940000Y-108132380D01*
X91797142Y-108180000D01*
X91701904Y-108275238D01*
X91654285Y-108370476D01*
X91606666Y-108560952D01*
X91606666Y-108703809D01*
X91654285Y-108894285D01*
X91701904Y-108989523D01*
X91797142Y-109084761D01*
X91940000Y-109132380D01*
X92178095Y-109132380D01*
X90654285Y-109132380D02*
X91225714Y-109132380D01*
X90940000Y-109132380D02*
X90940000Y-108132380D01*
X91035238Y-108275238D01*
X91130476Y-108370476D01*
X91225714Y-108418095D01*
%TO.C,D2*%
X92660595Y-126912380D02*
X92660595Y-125912380D01*
X92422500Y-125912380D01*
X92279642Y-125960000D01*
X92184404Y-126055238D01*
X92136785Y-126150476D01*
X92089166Y-126340952D01*
X92089166Y-126483809D01*
X92136785Y-126674285D01*
X92184404Y-126769523D01*
X92279642Y-126864761D01*
X92422500Y-126912380D01*
X92660595Y-126912380D01*
X91708214Y-126007619D02*
X91660595Y-125960000D01*
X91565357Y-125912380D01*
X91327261Y-125912380D01*
X91232023Y-125960000D01*
X91184404Y-126007619D01*
X91136785Y-126102857D01*
X91136785Y-126198095D01*
X91184404Y-126340952D01*
X91755833Y-126912380D01*
X91136785Y-126912380D01*
%TO.C,D3*%
X92660595Y-145962380D02*
X92660595Y-144962380D01*
X92422500Y-144962380D01*
X92279642Y-145010000D01*
X92184404Y-145105238D01*
X92136785Y-145200476D01*
X92089166Y-145390952D01*
X92089166Y-145533809D01*
X92136785Y-145724285D01*
X92184404Y-145819523D01*
X92279642Y-145914761D01*
X92422500Y-145962380D01*
X92660595Y-145962380D01*
X91755833Y-144962380D02*
X91136785Y-144962380D01*
X91470119Y-145343333D01*
X91327261Y-145343333D01*
X91232023Y-145390952D01*
X91184404Y-145438571D01*
X91136785Y-145533809D01*
X91136785Y-145771904D01*
X91184404Y-145867142D01*
X91232023Y-145914761D01*
X91327261Y-145962380D01*
X91612976Y-145962380D01*
X91708214Y-145914761D01*
X91755833Y-145867142D01*
%TO.C,D4*%
X111228095Y-109132380D02*
X111228095Y-108132380D01*
X110990000Y-108132380D01*
X110847142Y-108180000D01*
X110751904Y-108275238D01*
X110704285Y-108370476D01*
X110656666Y-108560952D01*
X110656666Y-108703809D01*
X110704285Y-108894285D01*
X110751904Y-108989523D01*
X110847142Y-109084761D01*
X110990000Y-109132380D01*
X111228095Y-109132380D01*
X109799523Y-108465714D02*
X109799523Y-109132380D01*
X110037619Y-108084761D02*
X110275714Y-108799047D01*
X109656666Y-108799047D01*
%TO.C,D5*%
X111710595Y-126912380D02*
X111710595Y-125912380D01*
X111472500Y-125912380D01*
X111329642Y-125960000D01*
X111234404Y-126055238D01*
X111186785Y-126150476D01*
X111139166Y-126340952D01*
X111139166Y-126483809D01*
X111186785Y-126674285D01*
X111234404Y-126769523D01*
X111329642Y-126864761D01*
X111472500Y-126912380D01*
X111710595Y-126912380D01*
X110234404Y-125912380D02*
X110710595Y-125912380D01*
X110758214Y-126388571D01*
X110710595Y-126340952D01*
X110615357Y-126293333D01*
X110377261Y-126293333D01*
X110282023Y-126340952D01*
X110234404Y-126388571D01*
X110186785Y-126483809D01*
X110186785Y-126721904D01*
X110234404Y-126817142D01*
X110282023Y-126864761D01*
X110377261Y-126912380D01*
X110615357Y-126912380D01*
X110710595Y-126864761D01*
X110758214Y-126817142D01*
%TO.C,D6*%
X111710595Y-145962380D02*
X111710595Y-144962380D01*
X111472500Y-144962380D01*
X111329642Y-145010000D01*
X111234404Y-145105238D01*
X111186785Y-145200476D01*
X111139166Y-145390952D01*
X111139166Y-145533809D01*
X111186785Y-145724285D01*
X111234404Y-145819523D01*
X111329642Y-145914761D01*
X111472500Y-145962380D01*
X111710595Y-145962380D01*
X110282023Y-144962380D02*
X110472500Y-144962380D01*
X110567738Y-145010000D01*
X110615357Y-145057619D01*
X110710595Y-145200476D01*
X110758214Y-145390952D01*
X110758214Y-145771904D01*
X110710595Y-145867142D01*
X110662976Y-145914761D01*
X110567738Y-145962380D01*
X110377261Y-145962380D01*
X110282023Y-145914761D01*
X110234404Y-145867142D01*
X110186785Y-145771904D01*
X110186785Y-145533809D01*
X110234404Y-145438571D01*
X110282023Y-145390952D01*
X110377261Y-145343333D01*
X110567738Y-145343333D01*
X110662976Y-145390952D01*
X110710595Y-145438571D01*
X110758214Y-145533809D01*
%TO.C,D7*%
X130760595Y-109132380D02*
X130760595Y-108132380D01*
X130522500Y-108132380D01*
X130379642Y-108180000D01*
X130284404Y-108275238D01*
X130236785Y-108370476D01*
X130189166Y-108560952D01*
X130189166Y-108703809D01*
X130236785Y-108894285D01*
X130284404Y-108989523D01*
X130379642Y-109084761D01*
X130522500Y-109132380D01*
X130760595Y-109132380D01*
X129855833Y-108132380D02*
X129189166Y-108132380D01*
X129617738Y-109132380D01*
%TO.C,D8*%
X129763096Y-128182380D02*
X129763096Y-127182380D01*
X129525001Y-127182380D01*
X129382143Y-127230000D01*
X129286905Y-127325238D01*
X129239286Y-127420476D01*
X129191667Y-127610952D01*
X129191667Y-127753809D01*
X129239286Y-127944285D01*
X129286905Y-128039523D01*
X129382143Y-128134761D01*
X129525001Y-128182380D01*
X129763096Y-128182380D01*
X128620239Y-127610952D02*
X128715477Y-127563333D01*
X128763096Y-127515714D01*
X128810715Y-127420476D01*
X128810715Y-127372857D01*
X128763096Y-127277619D01*
X128715477Y-127230000D01*
X128620239Y-127182380D01*
X128429762Y-127182380D01*
X128334524Y-127230000D01*
X128286905Y-127277619D01*
X128239286Y-127372857D01*
X128239286Y-127420476D01*
X128286905Y-127515714D01*
X128334524Y-127563333D01*
X128429762Y-127610952D01*
X128620239Y-127610952D01*
X128715477Y-127658571D01*
X128763096Y-127706190D01*
X128810715Y-127801428D01*
X128810715Y-127991904D01*
X128763096Y-128087142D01*
X128715477Y-128134761D01*
X128620239Y-128182380D01*
X128429762Y-128182380D01*
X128334524Y-128134761D01*
X128286905Y-128087142D01*
X128239286Y-127991904D01*
X128239286Y-127801428D01*
X128286905Y-127706190D01*
X128334524Y-127658571D01*
X128429762Y-127610952D01*
%TO.C,D9*%
X130760595Y-147232380D02*
X130760595Y-146232380D01*
X130522500Y-146232380D01*
X130379642Y-146280000D01*
X130284404Y-146375238D01*
X130236785Y-146470476D01*
X130189166Y-146660952D01*
X130189166Y-146803809D01*
X130236785Y-146994285D01*
X130284404Y-147089523D01*
X130379642Y-147184761D01*
X130522500Y-147232380D01*
X130760595Y-147232380D01*
X129712976Y-147232380D02*
X129522500Y-147232380D01*
X129427261Y-147184761D01*
X129379642Y-147137142D01*
X129284404Y-146994285D01*
X129236785Y-146803809D01*
X129236785Y-146422857D01*
X129284404Y-146327619D01*
X129332023Y-146280000D01*
X129427261Y-146232380D01*
X129617738Y-146232380D01*
X129712976Y-146280000D01*
X129760595Y-146327619D01*
X129808214Y-146422857D01*
X129808214Y-146660952D01*
X129760595Y-146756190D01*
X129712976Y-146803809D01*
X129617738Y-146851428D01*
X129427261Y-146851428D01*
X129332023Y-146803809D01*
X129284404Y-146756190D01*
X129236785Y-146660952D01*
%TD*%
M02*
