M48
; DRILL file {KiCad 5.1.8} date Sat Jan 16 11:33:35 2021
; FORMAT={-:-/ absolute / inch / decimal}
; #@! TF.CreationDate,2021-01-16T11:33:35+01:00
; #@! TF.GenerationSoftware,Kicad,Pcbnew,5.1.8
; #@! TF.FileFunction,Plated,1,2,PTH
FMAT,2
INCH
T1C0.0394
T2C0.0591
T3C0.1181
%
G90
G05
T1
X5.9Y-3.7
X5.9Y-3.8
X5.9Y-3.9
X5.9Y-4.0
X5.9Y-4.1
X5.9Y-4.2
X5.9Y-4.3
X5.9Y-4.4
X5.9Y-4.5
X5.9Y-4.6
X5.9Y-4.7
X5.9Y-4.8
X5.9Y-4.9
X5.9Y-5.0
X5.9Y-5.1
X5.9Y-5.2
X5.9Y-5.3
X5.9Y-5.4
X5.9Y-5.5
X5.9Y-5.6
X6.5Y-3.7
X6.5Y-3.8
X6.5Y-3.9
X6.5Y-4.0
X6.5Y-4.1
X6.5Y-4.2
X6.5Y-4.3
X6.5Y-4.4
X6.5Y-4.5
X6.5Y-4.6
X6.5Y-4.7
X6.5Y-4.8
X6.5Y-4.9
X6.5Y-5.0
X6.5Y-5.1
X6.5Y-5.2
X6.5Y-5.3
X6.5Y-5.4
X6.5Y-5.5
X6.5Y-5.6
T2
X3.45Y-5.35
X3.7Y-5.25
X4.2Y-5.35
X4.45Y-5.25
X4.2Y-3.85
X4.45Y-3.75
X4.95Y-3.85
X5.2Y-3.75
X4.95Y-5.35
X5.2Y-5.25
X4.95Y-4.6
X5.2Y-4.5
X3.45Y-4.6
X3.7Y-4.5
X4.2Y-4.6
X4.45Y-4.5
X3.45Y-3.85
X3.7Y-3.75
T3
X2.9134Y-3.6614
X2.9134Y-5.748
X6.811Y-3.6614
X6.811Y-5.748
T0
M30
