%TF.GenerationSoftware,KiCad,Pcbnew,5.1.8*%
%TF.CreationDate,2021-01-16T11:32:51+01:00*%
%TF.ProjectId,macropad,6d616372-6f70-4616-942e-6b696361645f,rev?*%
%TF.SameCoordinates,Original*%
%TF.FileFunction,Soldermask,Top*%
%TF.FilePolarity,Negative*%
%FSLAX46Y46*%
G04 Gerber Fmt 4.6, Leading zero omitted, Abs format (unit mm)*
G04 Created by KiCad (PCBNEW 5.1.8) date 2021-01-16 11:32:51*
%MOMM*%
%LPD*%
G01*
G04 APERTURE LIST*
%ADD10C,2.200000*%
%ADD11C,4.000000*%
%ADD12C,1.700000*%
%ADD13C,6.000000*%
%ADD14R,1.700000X1.700000*%
G04 APERTURE END LIST*
D10*
%TO.C,SW1*%
X93980000Y-95250000D03*
X87630000Y-97790000D03*
D11*
X91440000Y-100330000D03*
D12*
X86360000Y-100330000D03*
X96520000Y-100330000D03*
%TD*%
D13*
%TO.C,REF\u002A\u002A*%
X173000000Y-93000000D03*
%TD*%
%TO.C,REF\u002A\u002A*%
X173000000Y-146000000D03*
%TD*%
%TO.C,REF\u002A\u002A*%
X74000000Y-146000000D03*
%TD*%
%TO.C,REF\u002A\u002A*%
X74000000Y-93000000D03*
%TD*%
D12*
%TO.C,SW2*%
X96520000Y-119380000D03*
X86360000Y-119380000D03*
D11*
X91440000Y-119380000D03*
D10*
X87630000Y-116840000D03*
X93980000Y-114300000D03*
%TD*%
D12*
%TO.C,SW3*%
X96520000Y-138430000D03*
X86360000Y-138430000D03*
D11*
X91440000Y-138430000D03*
D10*
X87630000Y-135890000D03*
X93980000Y-133350000D03*
%TD*%
D12*
%TO.C,SW4*%
X115570000Y-100330000D03*
X105410000Y-100330000D03*
D11*
X110490000Y-100330000D03*
D10*
X106680000Y-97790000D03*
X113030000Y-95250000D03*
%TD*%
%TO.C,SW5*%
X113030000Y-114300000D03*
X106680000Y-116840000D03*
D11*
X110490000Y-119380000D03*
D12*
X105410000Y-119380000D03*
X115570000Y-119380000D03*
%TD*%
D10*
%TO.C,SW6*%
X113030000Y-133350000D03*
X106680000Y-135890000D03*
D11*
X110490000Y-138430000D03*
D12*
X105410000Y-138430000D03*
X115570000Y-138430000D03*
%TD*%
D10*
%TO.C,SW7*%
X132080000Y-95250000D03*
X125730000Y-97790000D03*
D11*
X129540000Y-100330000D03*
D12*
X124460000Y-100330000D03*
X134620000Y-100330000D03*
%TD*%
D10*
%TO.C,SW8*%
X132080000Y-114300000D03*
X125730000Y-116840000D03*
D11*
X129540000Y-119380000D03*
D12*
X124460000Y-119380000D03*
X134620000Y-119380000D03*
%TD*%
%TO.C,SW9*%
X134620000Y-138430000D03*
X124460000Y-138430000D03*
D11*
X129540000Y-138430000D03*
D10*
X125730000Y-135890000D03*
X132080000Y-133350000D03*
%TD*%
D12*
%TO.C,U1*%
X165100000Y-93980000D03*
D14*
X149860000Y-93980000D03*
D12*
X165100000Y-96520000D03*
X149860000Y-96520000D03*
X165100000Y-99060000D03*
X149860000Y-99060000D03*
X165100000Y-101600000D03*
X149860000Y-101600000D03*
X165100000Y-104140000D03*
X149860000Y-104140000D03*
X165100000Y-106680000D03*
X149860000Y-106680000D03*
X165100000Y-109220000D03*
X149860000Y-109220000D03*
X165100000Y-111760000D03*
X149860000Y-111760000D03*
X165100000Y-114300000D03*
X149860000Y-114300000D03*
X165100000Y-116840000D03*
X149860000Y-116840000D03*
X165100000Y-119380000D03*
X149860000Y-119380000D03*
X165100000Y-121920000D03*
X149860000Y-121920000D03*
X165100000Y-124460000D03*
X149860000Y-124460000D03*
X165100000Y-127000000D03*
X149860000Y-127000000D03*
X165100000Y-129540000D03*
X149860000Y-129540000D03*
X165100000Y-132080000D03*
X149860000Y-132080000D03*
X165100000Y-134620000D03*
X149860000Y-134620000D03*
X165100000Y-137160000D03*
X149860000Y-137160000D03*
X165100000Y-139700000D03*
X149860000Y-139700000D03*
X165100000Y-142240000D03*
X149860000Y-142240000D03*
%TD*%
M02*
